<svg xmlns="http://www.w3.org/2000/svg" xmlns:xlink="http://www.w3.org/1999/xlink" id="Layer_1" x="0px" y="0px" viewBox="0 0 752.1 167.9" style="enable-background:new 0 0 752.1 167.9;" xml:space="preserve"><style type="text/css">	.st0{clip-path:url(#SVGID_00000046337168259614864720000000697093478947276418_);}	.st1{clip-path:url(#SVGID_00000182523099713468621940000007215732854824247479_);enable-background:new    ;}	.st2{clip-path:url(#SVGID_00000103977352757052474390000010704679034673759633_);fill:#8FC930;}	.st3{enable-background:new    ;}	.st4{clip-path:url(#SVGID_00000032615175052650540190000011099807412056407983_);fill:#8FC930;}	.st5{fill-rule:evenodd;clip-rule:evenodd;fill:none;}	.st6{clip-path:url(#SVGID_00000123432147370708496100000007149026519470257556_);}	.st7{clip-path:url(#SVGID_00000145025542087958529210000014098514758321787316_);enable-background:new    ;}	.st8{clip-path:url(#SVGID_00000038378295225297900570000008518909397336265876_);fill:#8FC930;}	.st9{clip-path:url(#SVGID_00000130608081948253975550000010844096685975442093_);}	.st10{clip-path:url(#SVGID_00000032610188175468165960000010190789314752017322_);enable-background:new    ;}	.st11{clip-path:url(#SVGID_00000013914705231898100190000006710419044210802339_);fill:#8FC930;}	.st12{clip-path:url(#SVGID_00000009568202407699947310000007968863117349831590_);}	.st13{clip-path:url(#SVGID_00000177459406800141949530000011651562920281031348_);enable-background:new    ;}	.st14{clip-path:url(#SVGID_00000045577283049493024980000015150863812729739184_);fill:#8FC930;}	.st15{clip-path:url(#SVGID_00000165214116181384515710000009359513620249984944_);}	.st16{clip-path:url(#SVGID_00000103965727911404344310000010960658282556306845_);enable-background:new    ;}	.st17{clip-path:url(#SVGID_00000018235320637798342350000001174071097021873818_);fill:#8FC930;}	.st18{clip-path:url(#SVGID_00000114777815014513245060000003599763973717121153_);fill:#8FC930;}	.st19{clip-path:url(#SVGID_00000179616508693262023680000009988095209285583250_);}	.st20{clip-path:url(#SVGID_00000032617998516841641080000001189834105505154446_);enable-background:new    ;}	.st21{clip-path:url(#SVGID_00000088134526516425740760000009901021768100209285_);fill:#8FC930;}	.st22{clip-path:url(#SVGID_00000028291865512813227540000015219763678721057436_);}	.st23{clip-path:url(#SVGID_00000029014603379411047670000008760832186217362829_);enable-background:new    ;}	.st24{clip-path:url(#SVGID_00000017499686133283385470000003521796263884651700_);fill:#8FC930;}	.st25{clip-path:url(#SVGID_00000150068126722220310480000002539266468973160353_);}	.st26{clip-path:url(#SVGID_00000046318240103217647600000017814975432985623713_);enable-background:new    ;}	.st27{clip-path:url(#SVGID_00000175316584843112468050000000426688036772452258_);fill:#40C5F2;}	.st28{clip-path:url(#SVGID_00000112626286825677662330000010905296357280649368_);}	.st29{clip-path:url(#SVGID_00000103954284097773601860000009477670288907101876_);enable-background:new    ;}	.st30{clip-path:url(#SVGID_00000104681562880741451260000005416909067702454402_);fill:#40C5F2;}	.st31{clip-path:url(#SVGID_00000010995251890670950300000017538272597128478869_);}	.st32{clip-path:url(#SVGID_00000179617224507817048270000007448326876165504390_);enable-background:new    ;}	.st33{clip-path:url(#SVGID_00000051350685719370150090000001539174609844977538_);fill:#8FC930;}	.st34{clip-path:url(#SVGID_00000041997208339333579620000001897868082073260465_);}	.st35{clip-path:url(#SVGID_00000115510536672105315120000017084157105646253442_);enable-background:new    ;}	.st36{clip-path:url(#SVGID_00000076596813296218878900000011561093972992628633_);fill:#40C5F2;}	.st37{clip-path:url(#SVGID_00000113348509014266316870000010722729408261207457_);}	.st38{clip-path:url(#SVGID_00000114756530363250592100000008152024181226440366_);enable-background:new    ;}	.st39{clip-path:url(#SVGID_00000068654872214406341120000015990049222480204444_);fill:#8FC930;}	.st40{clip-path:url(#SVGID_00000119085759636416622850000002412525082436913047_);}	.st41{clip-path:url(#SVGID_00000124120906526072299750000018083199168164081061_);enable-background:new    ;}	.st42{clip-path:url(#SVGID_00000030461647643806168990000005104527021774365331_);fill:#8FC930;}</style><g>	<g>		<defs>			<rect id="SVGID_1_" x="189.9" y="36.4" width="70.2" height="74.9"></rect>		</defs>		<clipPath id="SVGID_00000072247286491915635230000001601912339651871379_">			<use xlink:href="#SVGID_1_" style="overflow:visible;"></use>		</clipPath>		<g style="clip-path:url(#SVGID_00000072247286491915635230000001601912339651871379_);">			<defs>				<path id="SVGID_00000111895449095180295390000013850128824784862862_" d="M246.9,42.9c5.8,3.5,10.2,8.3,13.1,14.3l-13,4.9     c-3.9-7.2-11.2-11.7-19.7-11.7c-6.4,0-11.8,2.3-16.1,6.8c-4.3,4.5-6.4,10.1-6.4,16.8c0,6.7,2.1,12.3,6.4,16.8     c4.3,4.5,9.7,6.7,16.1,6.7c8.5,0,15.8-4.4,19.7-11.6l13,4.9c-2.9,6-7.3,10.8-13.1,14.4c-5.8,3.5-12.3,5.3-19.6,5.3     c-10.4,0-19.1-3.5-26.1-10.4c-6.9-7-10.4-15.7-10.4-26.1c0-10.4,3.5-19.1,10.4-26c7-7,15.7-10.5,26.1-10.5     C234.6,37.5,241.1,39.4,246.9,42.9"></path>			</defs>			<clipPath id="SVGID_00000102510576307259217300000006756634127670219679_">				<use xlink:href="#SVGID_00000111895449095180295390000013850128824784862862_" style="overflow:visible;"></use>			</clipPath>			<g style="clip-path:url(#SVGID_00000102510576307259217300000006756634127670219679_);enable-background:new    ;">				<g>					<defs>						<rect id="SVGID_00000105412028145678801870000010296307405858823842_" x="190.5" y="37.5" width="69.8" height="73.4"></rect>					</defs>					<clipPath id="SVGID_00000162319045060925663160000004789949245562345873_">						<use xlink:href="#SVGID_00000105412028145678801870000010296307405858823842_" style="overflow:visible;"></use>					</clipPath>											<rect x="181.6" y="-162.2" style="clip-path:url(#SVGID_00000162319045060925663160000004789949245562345873_);fill:#8FC930;" width="578" height="304.5"></rect>				</g>			</g>		</g>	</g>	<g class="st3">		<g>			<defs>				<rect id="SVGID_00000147211435418250693570000014642712372606043284_" x="268.7" y="33.9" width="12.8" height="75.1"></rect>			</defs>			<clipPath id="SVGID_00000170260207238596477580000013146367742100358561_">				<use xlink:href="#SVGID_00000147211435418250693570000014642712372606043284_" style="overflow:visible;"></use>			</clipPath>							<rect x="181.6" y="-162.2" style="clip-path:url(#SVGID_00000170260207238596477580000013146367742100358561_);fill:#8FC930;" width="578" height="304.5"></rect>		</g>	</g>	<rect x="268.7" y="34.1" class="st5" width="12.5" height="75"></rect>	<g>		<defs>			<rect id="SVGID_00000060007398180526847780000003564777699388476060_" x="289.8" y="55.4" width="54.7" height="55.9"></rect>		</defs>		<clipPath id="SVGID_00000001655236360506962620000008567658589653170588_">			<use xlink:href="#SVGID_00000060007398180526847780000003564777699388476060_" style="overflow:visible;"></use>		</clipPath>		<g style="clip-path:url(#SVGID_00000001655236360506962620000008567658589653170588_);">			<defs>				<path id="SVGID_00000147204686530287703490000017509483107235340219_" d="M302.8,87.7c1.9,6.8,7.9,11.4,15.2,11.4     c5.1,0,9.2-1.8,12.2-5.5l12.1,3.5c-4.8,8.3-13.8,13.5-24.3,13.5c-8,0-14.7-2.6-20.1-7.8c-5.3-5.3-8-11.8-8-19.7     c0-7.9,2.6-14.4,7.8-19.6c5.3-5.3,11.8-7.9,19.5-7.9s14.2,2.6,19.4,7.9c5.3,5.3,7.9,11.8,7.9,19.6c0,1.1-0.1,2.6-0.4,4.6     L302.8,87.7z M331.6,78c-2-6.5-7.8-10.9-14.6-10.9c-6.5,0-12.2,4.4-14.1,10.9H331.6z"></path>			</defs>			<clipPath id="SVGID_00000069398189031145249600000008996642956267190153_">				<use xlink:href="#SVGID_00000147204686530287703490000017509483107235340219_" style="overflow:visible;"></use>			</clipPath>			<g style="clip-path:url(#SVGID_00000069398189031145249600000008996642956267190153_);enable-background:new    ;">				<g>					<defs>						<rect id="SVGID_00000088828063119895516850000008038061373428596110_" x="289.5" y="55.2" width="55.2" height="55.7"></rect>					</defs>					<clipPath id="SVGID_00000030484158984008874590000012008066253559962776_">						<use xlink:href="#SVGID_00000088828063119895516850000008038061373428596110_" style="overflow:visible;"></use>					</clipPath>											<rect x="181.6" y="-162.2" style="clip-path:url(#SVGID_00000030484158984008874590000012008066253559962776_);fill:#8FC930;" width="578" height="304.5"></rect>				</g>			</g>		</g>	</g>	<g>		<defs>			<rect id="SVGID_00000145046034466262478350000010761264655618083252_" x="349.3" y="55.4" width="54.7" height="55.9"></rect>		</defs>		<clipPath id="SVGID_00000091000991963543818140000010312038992522755757_">			<use xlink:href="#SVGID_00000145046034466262478350000010761264655618083252_" style="overflow:visible;"></use>		</clipPath>		<g style="clip-path:url(#SVGID_00000091000991963543818140000010312038992522755757_);">			<defs>				<path id="SVGID_00000003078787279066990760000001977794251054772899_" d="M391.4,61.2v-4.1h12.4v52h-12.4V105     c-4.6,3.7-9.9,5.6-15.8,5.6c-7.2,0-13.2-2.6-18.1-7.8c-4.8-5.3-7.2-11.8-7.2-19.7c0-7.9,2.4-14.4,7.2-19.6     c4.9-5.3,10.9-7.9,18.1-7.9C381.5,55.5,386.8,57.4,391.4,61.2 M377.2,68.1c-3.9,0-7.3,1.4-10,4.3c-2.7,2.9-4,6.4-4,10.7     c0,4.3,1.3,7.8,4,10.7c2.7,2.9,6.1,4.3,10,4.3s7.2-1.4,9.9-4.3c2.7-2.9,4.1-6.4,4.1-10.7c0-4.3-1.4-7.8-4.1-10.7     C384.4,69.5,381.1,68.1,377.2,68.1"></path>			</defs>			<clipPath id="SVGID_00000084501268841031840700000003163747819439984038_">				<use xlink:href="#SVGID_00000003078787279066990760000001977794251054772899_" style="overflow:visible;"></use>			</clipPath>			<g style="clip-path:url(#SVGID_00000084501268841031840700000003163747819439984038_);enable-background:new    ;">				<g>					<defs>						<rect id="SVGID_00000059272353605065787110000002195566475541155477_" x="350.1" y="55.2" width="53.9" height="55.7"></rect>					</defs>					<clipPath id="SVGID_00000092424071072622152840000015924202840459969172_">						<use xlink:href="#SVGID_00000059272353605065787110000002195566475541155477_" style="overflow:visible;"></use>					</clipPath>											<rect x="181.6" y="-162.2" style="clip-path:url(#SVGID_00000092424071072622152840000015924202840459969172_);fill:#8FC930;" width="578" height="304.5"></rect>				</g>			</g>		</g>	</g>	<g>		<defs>			<rect id="SVGID_00000109000668324256271190000014427312070019637904_" x="413.5" y="55.4" width="50" height="54.7"></rect>		</defs>		<clipPath id="SVGID_00000034774498653859131460000018174149391816622735_">			<use xlink:href="#SVGID_00000109000668324256271190000014427312070019637904_" style="overflow:visible;"></use>		</clipPath>		<g style="clip-path:url(#SVGID_00000034774498653859131460000018174149391816622735_);">			<defs>				<path id="SVGID_00000055683176087662271400000008813147930567474107_" d="M414.4,57.1h12.5v6.3c3.8-5.2,9-7.8,15.6-7.8     c5.9,0,10.7,1.9,14.6,5.8c3.9,3.9,5.9,8.7,5.9,14.5v33.2h-12.5V79.4c0-6.8-5-11.9-11.7-11.9c-6.8,0-11.9,5.1-11.9,11.9v29.7     h-12.5V57.1z"></path>			</defs>			<clipPath id="SVGID_00000054975299767718447800000007391953793941296257_">				<use xlink:href="#SVGID_00000055683176087662271400000008813147930567474107_" style="overflow:visible;"></use>			</clipPath>			<g style="clip-path:url(#SVGID_00000054975299767718447800000007391953793941296257_);enable-background:new    ;">				<g>					<defs>						<rect id="SVGID_00000151501563552877804720000009629649270559243913_" x="414.1" y="55.2" width="49.1" height="53.9"></rect>					</defs>					<clipPath id="SVGID_00000029034654027657249650000015818995694217297545_">						<use xlink:href="#SVGID_00000151501563552877804720000009629649270559243913_" style="overflow:visible;"></use>					</clipPath>											<rect x="181.6" y="-162.2" style="clip-path:url(#SVGID_00000029034654027657249650000015818995694217297545_);fill:#8FC930;" width="578" height="304.5"></rect>				</g>			</g>		</g>	</g>	<g>		<defs>			<rect id="SVGID_00000132801615908464013490000005247695083026784422_" x="470.6" y="55.4" width="57.1" height="55.9"></rect>		</defs>		<clipPath id="SVGID_00000004504164539375759550000011855904475422087339_">			<use xlink:href="#SVGID_00000132801615908464013490000005247695083026784422_" style="overflow:visible;"></use>		</clipPath>		<g style="clip-path:url(#SVGID_00000004504164539375759550000011855904475422087339_);">			<defs>				<path id="SVGID_00000119109015426914009580000006069579606214798008_" d="M471.7,83.1c0-7.9,2.6-14.4,7.8-19.6     c5.3-5.3,11.8-7.9,19.7-7.9c7.9,0,14.4,2.6,19.7,7.9c5.3,5.2,7.9,11.7,7.9,19.6c0,7.9-2.6,14.4-7.9,19.7     c-5.3,5.2-11.8,7.8-19.7,7.8c-7.9,0-14.4-2.6-19.7-7.8C474.3,97.5,471.7,91,471.7,83.1 M484.6,83.1c0,4.3,1.4,7.8,4.2,10.7     c2.8,2.9,6.3,4.3,10.4,4.3c4.1,0,7.6-1.4,10.4-4.3c2.8-2.9,4.2-6.4,4.2-10.7c0-4.3-1.4-7.8-4.2-10.7c-2.8-2.9-6.3-4.3-10.4-4.3     c-4.1,0-7.6,1.4-10.4,4.3C486,75.3,484.6,78.8,484.6,83.1"></path>			</defs>			<clipPath id="SVGID_00000076569788916627799310000012459093926814581902_">				<use xlink:href="#SVGID_00000119109015426914009580000006069579606214798008_" style="overflow:visible;"></use>			</clipPath>			<g style="clip-path:url(#SVGID_00000076569788916627799310000012459093926814581902_);enable-background:new    ;">				<g>					<defs>						<rect id="SVGID_00000024701217465760350070000008086251906550686122_" x="471.6" y="55.2" width="55.7" height="55.7"></rect>					</defs>					<clipPath id="SVGID_00000134949765184283842880000004375699764167788195_">						<use xlink:href="#SVGID_00000024701217465760350070000008086251906550686122_" style="overflow:visible;"></use>					</clipPath>											<rect x="181.6" y="-162.2" style="clip-path:url(#SVGID_00000134949765184283842880000004375699764167788195_);fill:#8FC930;" width="578" height="304.5"></rect>				</g>			</g>		</g>	</g>	<g class="st3">		<g>			<defs>				<rect id="SVGID_00000142150054662636406500000007499958420407897226_" x="535.2" y="33.9" width="12.8" height="75.1"></rect>			</defs>			<clipPath id="SVGID_00000105401512036446640210000010751802261096689282_">				<use xlink:href="#SVGID_00000142150054662636406500000007499958420407897226_" style="overflow:visible;"></use>			</clipPath>							<rect x="181.6" y="-162.2" style="clip-path:url(#SVGID_00000105401512036446640210000010751802261096689282_);fill:#8FC930;" width="578" height="304.5"></rect>		</g>	</g>	<rect x="535.5" y="34.1" class="st5" width="12.5" height="75"></rect>	<g>		<defs>			<rect id="SVGID_00000109734799336768355180000015757358999769280940_" x="556.3" y="55.4" width="55.9" height="55.9"></rect>		</defs>		<clipPath id="SVGID_00000083071410658587595820000014442867325135718299_">			<use xlink:href="#SVGID_00000109734799336768355180000015757358999769280940_" style="overflow:visible;"></use>		</clipPath>		<g style="clip-path:url(#SVGID_00000083071410658587595820000014442867325135718299_);">			<defs>				<path id="SVGID_00000156565328513700069190000018377446779471494050_" d="M556.6,83.1c0-7.9,2.6-14.4,7.8-19.6     c5.3-5.3,11.8-7.9,19.7-7.9c7.9,0,14.4,2.6,19.7,7.9c5.3,5.2,7.9,11.7,7.9,19.6c0,7.9-2.6,14.4-7.9,19.7     c-5.3,5.2-11.8,7.8-19.7,7.8c-7.9,0-14.4-2.6-19.7-7.8C559.3,97.5,556.6,91,556.6,83.1 M569.6,83.1c0,4.3,1.4,7.8,4.2,10.7     c2.8,2.9,6.3,4.3,10.4,4.3s7.6-1.4,10.4-4.3c2.8-2.9,4.2-6.4,4.2-10.7c0-4.3-1.4-7.8-4.2-10.7c-2.8-2.9-6.3-4.3-10.4-4.3     s-7.6,1.4-10.4,4.3C571,75.3,569.6,78.8,569.6,83.1"></path>			</defs>			<clipPath id="SVGID_00000050644831774434015040000002580488032738576773_">				<use xlink:href="#SVGID_00000156565328513700069190000018377446779471494050_" style="overflow:visible;"></use>			</clipPath>			<g style="clip-path:url(#SVGID_00000050644831774434015040000002580488032738576773_);enable-background:new    ;">				<g>					<defs>						<rect id="SVGID_00000182497547065451556050000002122741994169820557_" x="556.5" y="55.2" width="55.7" height="55.7"></rect>					</defs>					<clipPath id="SVGID_00000111871548361691454570000017852760496474736280_">						<use xlink:href="#SVGID_00000182497547065451556050000002122741994169820557_" style="overflow:visible;"></use>					</clipPath>											<rect x="181.6" y="-162.2" style="clip-path:url(#SVGID_00000111871548361691454570000017852760496474736280_);fill:#8FC930;" width="578" height="304.5"></rect>				</g>			</g>		</g>	</g>	<g>		<defs>			<rect id="SVGID_00000141421032679620723880000004354248374660152988_" x="677.6" y="56.6" width="53.5" height="74.9"></rect>		</defs>		<clipPath id="SVGID_00000183218120969133039370000000454453933233275280_">			<use xlink:href="#SVGID_00000141421032679620723880000004354248374660152988_" style="overflow:visible;"></use>		</clipPath>		<g style="clip-path:url(#SVGID_00000183218120969133039370000000454453933233275280_);">			<defs>				<path id="SVGID_00000159441451137483013720000001968572294592660360_" d="M698.2,108.1l-20-51h12.9l13.3,35.1L718,57.1h12.9     l-23.5,58.8c-4.4,10.9-11.2,15.7-22.7,15.7h-2v-11.9h2c6,0,10-2.7,12.1-8L698.2,108.1z"></path>			</defs>			<clipPath id="SVGID_00000114044688263640264900000003509857815046929594_">				<use xlink:href="#SVGID_00000159441451137483013720000001968572294592660360_" style="overflow:visible;"></use>			</clipPath>			<g style="clip-path:url(#SVGID_00000114044688263640264900000003509857815046929594_);enable-background:new    ;">				<g>					<defs>						<rect id="SVGID_00000023275685144420978580000010512971347151750812_" x="678" y="56.9" width="53" height="74.7"></rect>					</defs>					<clipPath id="SVGID_00000156587450164058807970000010012029925723219883_">						<use xlink:href="#SVGID_00000023275685144420978580000010512971347151750812_" style="overflow:visible;"></use>					</clipPath>											<rect x="181.6" y="-162.2" style="clip-path:url(#SVGID_00000156587450164058807970000010012029925723219883_);fill:#8FC930;" width="578" height="304.5"></rect>				</g>			</g>		</g>	</g>	<g>		<defs>			<rect id="SVGID_00000158737114159094967180000010838708098618369695_" x="619.3" y="55.4" width="52.3" height="51.1"></rect>		</defs>		<clipPath id="SVGID_00000127018770537583460410000003432715199229049023_">			<use xlink:href="#SVGID_00000158737114159094967180000010838708098618369695_" style="overflow:visible;"></use>		</clipPath>		<g style="clip-path:url(#SVGID_00000127018770537583460410000003432715199229049023_);">			<defs>				<path id="SVGID_00000168112785120897371820000009999761933859389853_" d="M645.3,55.6c-15.2,0-25.7,11.7-25.7,25.1     c0,14.9,11.5,25.2,25.9,25.2c13.7,0,25.5-10.1,25.5-25.2c0-8.9-3.9-12.9-3.9-12.9l3.3-1.1V57h-16.9     C653.5,57,649.9,55.6,645.3,55.6 M645.2,67c8,0,13.8,6.2,13.8,13.7c0,7.9-6.5,13.7-13.6,13.7c-8.4,0-13.8-6.7-13.8-13.7     C631.6,73,637.6,67,645.2,67"></path>			</defs>			<clipPath id="SVGID_00000160881452737888719220000000750909683514328960_">				<use xlink:href="#SVGID_00000168112785120897371820000009999761933859389853_" style="overflow:visible;"></use>			</clipPath>			<g style="clip-path:url(#SVGID_00000160881452737888719220000000750909683514328960_);enable-background:new    ;">				<g>					<defs>						<rect id="SVGID_00000125565403888654974680000005641762285844453525_" x="619.2" y="55.2" width="52.2" height="50.8"></rect>					</defs>					<clipPath id="SVGID_00000024709047117070999850000007319255867435908783_">						<use xlink:href="#SVGID_00000125565403888654974680000005641762285844453525_" style="overflow:visible;"></use>					</clipPath>											<rect x="181.6" y="-162.2" style="clip-path:url(#SVGID_00000024709047117070999850000007319255867435908783_);fill:#40C5F2;" width="578" height="304.5"></rect>				</g>			</g>		</g>	</g>	<g>		<defs>			<rect id="SVGID_00000116951600349930950540000006774268275145754793_" x="619.3" y="107.8" width="52.3" height="26.2"></rect>		</defs>		<clipPath id="SVGID_00000153688111146279584260000017577364694296716728_">			<use xlink:href="#SVGID_00000116951600349930950540000006774268275145754793_" style="overflow:visible;"></use>		</clipPath>		<g style="clip-path:url(#SVGID_00000153688111146279584260000017577364694296716728_);">			<defs>				<path id="SVGID_00000143593850368040740620000014697103885625906603_" d="M658.9,107.8c0,7.9-6.5,13.8-13.6,13.8     c-8.4,0-13.8-6.8-13.8-13.8h-12c0,14.9,11.4,25.2,25.9,25.2c13.7,0,25.5-10.1,25.5-25.2H658.9z"></path>			</defs>			<clipPath id="SVGID_00000106132989297130143630000012371592733734489007_">				<use xlink:href="#SVGID_00000143593850368040740620000014697103885625906603_" style="overflow:visible;"></use>			</clipPath>			<g style="clip-path:url(#SVGID_00000106132989297130143630000012371592733734489007_);enable-background:new    ;">				<g>					<defs>						<rect id="SVGID_00000072964526336816796000000010144041929347754381_" x="619.2" y="107.7" width="51.7" height="25.6"></rect>					</defs>					<clipPath id="SVGID_00000165195952787394699890000000124738344887061928_">						<use xlink:href="#SVGID_00000072964526336816796000000010144041929347754381_" style="overflow:visible;"></use>					</clipPath>											<rect x="181.6" y="-162.2" style="clip-path:url(#SVGID_00000165195952787394699890000000124738344887061928_);fill:#40C5F2;" width="578" height="304.5"></rect>				</g>			</g>		</g>	</g>	<g>		<defs>			<rect id="SVGID_00000167360418258551229620000004571089000525639091_" x="729.9" y="35.2" width="20.2" height="21.4"></rect>		</defs>		<clipPath id="SVGID_00000049903180926411230760000001001770733203726257_">			<use xlink:href="#SVGID_00000167360418258551229620000004571089000525639091_" style="overflow:visible;"></use>		</clipPath>		<g style="clip-path:url(#SVGID_00000049903180926411230760000001001770733203726257_);">			<defs>				<path id="SVGID_00000107570087355413373700000003494105976827173818_" d="M740.1,55.6c-5.4,0-9.7-4.3-9.7-9.7     c0-5.4,4.3-9.7,9.7-9.7s9.7,4.3,9.7,9.7C749.8,51.3,745.5,55.6,740.1,55.6 M731,45.9c0,5,4.1,9.1,9.1,9.1c5,0,9.1-4.1,9.1-9.1     s-4.1-9.1-9.1-9.1C735.1,36.8,731,40.9,731,45.9 M736.6,40.9c0.9-0.1,2.1-0.2,3.1-0.2c3.5,0,4.3,1.5,4.3,2.8     c0,1.3-0.9,2.4-2.4,2.6v0.1c1,0.2,1.6,1,1.8,1.8c0.4,1.6,0.7,2.5,1,3.1H743c-0.2-0.3-0.4-1-0.8-2.5c-0.3-1.3-0.9-1.8-2.3-2h-2     V51h-1.3L736.6,40.9z M737.9,45.5h2.2c1.7,0,2.6-0.8,2.6-1.9c0-1.3-1-2-2.9-2c-0.9,0-1.5,0.1-1.9,0.1V45.5z"></path>			</defs>			<clipPath id="SVGID_00000041257963711623064770000013641410951793534088_">				<use xlink:href="#SVGID_00000107570087355413373700000003494105976827173818_" style="overflow:visible;"></use>			</clipPath>			<g style="clip-path:url(#SVGID_00000041257963711623064770000013641410951793534088_);enable-background:new    ;">				<g>					<defs>						<rect id="SVGID_00000171700501952627790970000010994909353921915058_" x="730.2" y="35.7" width="19.9" height="19.9"></rect>					</defs>					<clipPath id="SVGID_00000088099195889213643690000000987742595512187798_">						<use xlink:href="#SVGID_00000171700501952627790970000010994909353921915058_" style="overflow:visible;"></use>					</clipPath>											<rect x="181.6" y="-162.2" style="clip-path:url(#SVGID_00000088099195889213643690000000987742595512187798_);fill:#8FC930;" width="578" height="304.5"></rect>				</g>			</g>		</g>	</g></g><g>	<defs>		<rect id="SVGID_00000004538636658862377330000005129489569575414683_" x="29.7" y="41" width="94.5" height="119.4"></rect>	</defs>	<clipPath id="SVGID_00000089541523994806205530000012594178354630238608_">		<use xlink:href="#SVGID_00000004538636658862377330000005129489569575414683_" style="overflow:visible;"></use>	</clipPath>	<g style="clip-path:url(#SVGID_00000089541523994806205530000012594178354630238608_);">		<defs>			<path id="SVGID_00000040543845176342129040000014796834526458184841_" d="M30.1,44.9v14.9c0,1.7,1.3,3,3,3h12.2L32.1,96.7    l25.4-20.5c0.9-0.7,2-1.1,3.1-1.1h6.9v32.9c0,1.2,0.3,2.3,1,3.3l6.2,9.6c2.6,3.9,2.1,9-1,12.5l-11.5,12.6L81,159.6l33.9-24.8    l-8.6-32c0,0-2-12,3.9-19.8c5.9-7.9,13.5-6.6,13.5-6.6s-1.7-7.8-7.8-19.2c-2.5-4.6-4.8-7.9-6.7-10.2c-2.6-3.1-6.5-5-10.7-5H33.1    C31.5,41.9,30.1,43.3,30.1,44.9"></path>		</defs>		<clipPath id="SVGID_00000058559032186142793630000009566459689098863270_">			<use xlink:href="#SVGID_00000040543845176342129040000014796834526458184841_" style="overflow:visible;"></use>		</clipPath>		<g style="clip-path:url(#SVGID_00000058559032186142793630000009566459689098863270_);enable-background:new    ;">			<g>				<defs>					<rect id="SVGID_00000021842339758784155560000004678609801157664657_" x="30.1" y="41.9" width="94" height="117.8"></rect>				</defs>				<clipPath id="SVGID_00000054258298862846447710000009822662008231745411_">					<use xlink:href="#SVGID_00000021842339758784155560000004678609801157664657_" style="overflow:visible;"></use>				</clipPath>									<rect x="-143.1" y="1.9" style="clip-path:url(#SVGID_00000054258298862846447710000009822662008231745411_);fill:#40C5F2;" width="464" height="244.4"></rect>			</g>		</g>	</g></g><g>	<defs>		<rect id="SVGID_00000126307078054111365790000010642040777424790685_" x="2" y="65.8" width="65.9" height="77.3"></rect>	</defs>	<clipPath id="SVGID_00000049906407031032658140000003418703336204678032_">		<use xlink:href="#SVGID_00000126307078054111365790000010642040777424790685_" style="overflow:visible;"></use>	</clipPath>	<g style="clip-path:url(#SVGID_00000049906407031032658140000003418703336204678032_);">		<defs>			<polygon id="SVGID_00000177485139574263199720000013911937259191391138_" points="67.8,132.9 18.2,96.9 28,66.6 13.5,66.6     2,102.1 58.4,143.1    "></polygon>		</defs>		<clipPath id="SVGID_00000152960628478389333600000007636714735927884198_">			<use xlink:href="#SVGID_00000177485139574263199720000013911937259191391138_" style="overflow:visible;"></use>		</clipPath>		<g style="clip-path:url(#SVGID_00000152960628478389333600000007636714735927884198_);enable-background:new    ;">			<g>				<defs>					<rect id="SVGID_00000160902975670493893100000008450959399029576344_" x="1.7" y="66.4" width="66.4" height="77"></rect>				</defs>				<clipPath id="SVGID_00000167364618546113698770000017426323118890730131_">					<use xlink:href="#SVGID_00000160902975670493893100000008450959399029576344_" style="overflow:visible;"></use>				</clipPath>									<rect x="-143.1" y="1.9" style="clip-path:url(#SVGID_00000167364618546113698770000017426323118890730131_);fill:#8FC930;" width="464" height="244.4"></rect>			</g>		</g>	</g></g><g>	<defs>		<rect id="SVGID_00000075132827461549618670000016171333193560427907_" x="23" y="8.5" width="137.5" height="124.1"></rect>	</defs>	<clipPath id="SVGID_00000141451639722328449080000003606942220069416859_">		<use xlink:href="#SVGID_00000075132827461549618670000016171333193560427907_" style="overflow:visible;"></use>	</clipPath>	<g style="clip-path:url(#SVGID_00000141451639722328449080000003606942220069416859_);">		<defs>			<polygon id="SVGID_00000175308539885047956620000008067629446608428932_" points="37.5,37.3 42.2,23 119.9,23 143.9,96.9     115.1,117.8 118.9,132 160,102.2 129.9,9.3 32.2,9.3 23.1,37.3 35.3,37.3    "></polygon>		</defs>		<clipPath id="SVGID_00000129183460415965271660000017809303099036731056_">			<use xlink:href="#SVGID_00000175308539885047956620000008067629446608428932_" style="overflow:visible;"></use>		</clipPath>		<g style="clip-path:url(#SVGID_00000129183460415965271660000017809303099036731056_);enable-background:new    ;">			<g>				<defs>					<rect id="SVGID_00000111898284510653374370000002449143793602207137_" x="23" y="9.2" width="137.3" height="123.1"></rect>				</defs>				<clipPath id="SVGID_00000160892503361759184490000010155496310291664302_">					<use xlink:href="#SVGID_00000111898284510653374370000002449143793602207137_" style="overflow:visible;"></use>				</clipPath>									<rect x="-143.1" y="1.9" style="clip-path:url(#SVGID_00000160892503361759184490000010155496310291664302_);fill:#8FC930;" width="464" height="244.4"></rect>			</g>		</g>	</g></g></svg>